<mxfile host="Electron" modified="2023-10-20T15:14:32.309Z" agent="Mozilla/5.0 (Windows NT 10.0; Win64; x64) AppleWebKit/537.36 (KHTML, like Gecko) draw.io/22.0.2 Chrome/114.0.5735.289 Electron/25.8.4 Safari/537.36" etag="fbAy7fTXQ9yeVEfJX3Dt" version="22.0.2" type="device">
  <diagram name="Page-1" id="dSXf202UmAQr6QqY9vT1">
    <mxGraphModel dx="1217" dy="330" grid="1" gridSize="10" guides="1" tooltips="1" connect="1" arrows="1" fold="1" page="1" pageScale="1" pageWidth="850" pageHeight="1100" math="0" shadow="0">
      <root>
        <mxCell id="0" />
        <mxCell id="1" parent="0" />
        <mxCell id="IPZVipy1gVgAvXjCeuIr-1" value="" style="rounded=0;whiteSpace=wrap;html=1;" parent="1" vertex="1">
          <mxGeometry y="120" width="800" height="600" as="geometry" />
        </mxCell>
        <mxCell id="IPZVipy1gVgAvXjCeuIr-7" value="(0, 0)" style="shape=waypoint;sketch=0;fillStyle=solid;size=6;pointerEvents=1;points=[];fillColor=none;resizable=0;rotatable=0;perimeter=centerPerimeter;snapToPoint=1;align=left;labelPosition=right;verticalLabelPosition=top;verticalAlign=bottom;" parent="1" vertex="1">
          <mxGeometry x="-10" y="110" width="20" height="20" as="geometry" />
        </mxCell>
        <mxCell id="IPZVipy1gVgAvXjCeuIr-8" value="(800, 0)" style="shape=waypoint;sketch=0;fillStyle=solid;size=6;pointerEvents=1;points=[];fillColor=none;resizable=0;rotatable=0;perimeter=centerPerimeter;snapToPoint=1;align=left;labelPosition=right;verticalLabelPosition=top;verticalAlign=bottom;" parent="1" vertex="1">
          <mxGeometry x="790" y="110" width="20" height="20" as="geometry" />
        </mxCell>
        <mxCell id="IPZVipy1gVgAvXjCeuIr-9" value="(0, 600)" style="shape=waypoint;sketch=0;fillStyle=solid;size=6;pointerEvents=1;points=[];fillColor=none;resizable=0;rotatable=0;perimeter=centerPerimeter;snapToPoint=1;align=left;labelPosition=right;verticalLabelPosition=top;verticalAlign=bottom;" parent="1" vertex="1">
          <mxGeometry x="-10" y="710" width="20" height="20" as="geometry" />
        </mxCell>
        <mxCell id="IPZVipy1gVgAvXjCeuIr-10" value="(800, 600)" style="shape=waypoint;sketch=0;fillStyle=solid;size=6;pointerEvents=1;points=[];fillColor=none;resizable=0;rotatable=0;perimeter=centerPerimeter;snapToPoint=1;align=left;labelPosition=right;verticalLabelPosition=top;verticalAlign=bottom;" parent="1" vertex="1">
          <mxGeometry x="790" y="710" width="20" height="20" as="geometry" />
        </mxCell>
        <mxCell id="IPZVipy1gVgAvXjCeuIr-11" value="(400, 0)" style="shape=waypoint;sketch=0;fillStyle=solid;size=6;pointerEvents=1;points=[];fillColor=none;resizable=0;rotatable=0;perimeter=centerPerimeter;snapToPoint=1;align=left;labelPosition=right;verticalLabelPosition=top;verticalAlign=bottom;" parent="1" vertex="1">
          <mxGeometry x="390" y="110" width="20" height="20" as="geometry" />
        </mxCell>
        <mxCell id="IPZVipy1gVgAvXjCeuIr-12" value="(0, 300)" style="shape=waypoint;sketch=0;fillStyle=solid;size=6;pointerEvents=1;points=[];fillColor=none;resizable=0;rotatable=0;perimeter=centerPerimeter;snapToPoint=1;align=left;labelPosition=right;verticalLabelPosition=top;verticalAlign=bottom;" parent="1" vertex="1">
          <mxGeometry x="-10" y="410" width="20" height="20" as="geometry" />
        </mxCell>
        <mxCell id="IPZVipy1gVgAvXjCeuIr-13" value="(420, 500)" style="shape=waypoint;sketch=0;fillStyle=solid;size=6;pointerEvents=1;points=[];fillColor=none;resizable=0;rotatable=0;perimeter=centerPerimeter;snapToPoint=1;align=left;labelPosition=right;verticalLabelPosition=top;verticalAlign=bottom;strokeWidth=3;" parent="1" vertex="1">
          <mxGeometry x="440" y="630" width="20" height="20" as="geometry" />
        </mxCell>
        <mxCell id="HKxgeeIhbZPUrJqvb2Vm-1" value="" style="endArrow=classic;html=1;rounded=0;dashed=1;" edge="1" parent="1">
          <mxGeometry width="50" height="50" relative="1" as="geometry">
            <mxPoint x="439" y="634" as="sourcePoint" />
            <mxPoint x="610" y="710" as="targetPoint" />
          </mxGeometry>
        </mxCell>
        <mxCell id="HKxgeeIhbZPUrJqvb2Vm-2" value="" style="endArrow=classic;html=1;rounded=0;dashed=1;" edge="1" parent="1">
          <mxGeometry width="50" height="50" relative="1" as="geometry">
            <mxPoint x="612" y="712" as="sourcePoint" />
            <mxPoint x="743" y="642" as="targetPoint" />
          </mxGeometry>
        </mxCell>
        <mxCell id="HKxgeeIhbZPUrJqvb2Vm-3" value="(460, 530)" style="shape=waypoint;sketch=0;fillStyle=solid;size=6;pointerEvents=1;points=[];fillColor=none;resizable=0;rotatable=0;perimeter=centerPerimeter;snapToPoint=1;align=left;labelPosition=right;verticalLabelPosition=top;verticalAlign=bottom;strokeWidth=3;" vertex="1" parent="1">
          <mxGeometry x="490" y="650" width="20" height="20" as="geometry" />
        </mxCell>
        <mxCell id="HKxgeeIhbZPUrJqvb2Vm-5" value="(500, 560)" style="shape=waypoint;sketch=0;fillStyle=solid;size=6;pointerEvents=1;points=[];fillColor=none;resizable=0;rotatable=0;perimeter=centerPerimeter;snapToPoint=1;align=left;labelPosition=right;verticalLabelPosition=top;verticalAlign=bottom;strokeWidth=3;" vertex="1" parent="1">
          <mxGeometry x="540" y="670" width="20" height="20" as="geometry" />
        </mxCell>
        <mxCell id="HKxgeeIhbZPUrJqvb2Vm-6" value="(540, 600)" style="shape=waypoint;sketch=0;fillStyle=solid;size=6;pointerEvents=1;points=[];fillColor=none;resizable=0;rotatable=0;perimeter=centerPerimeter;snapToPoint=1;align=left;labelPosition=right;verticalLabelPosition=top;verticalAlign=bottom;strokeWidth=3;" vertex="1" parent="1">
          <mxGeometry x="600" y="710" width="20" height="20" as="geometry" />
        </mxCell>
        <mxCell id="HKxgeeIhbZPUrJqvb2Vm-7" value="(600, 560)" style="shape=waypoint;sketch=0;fillStyle=solid;size=6;pointerEvents=1;points=[];fillColor=none;resizable=0;rotatable=0;perimeter=centerPerimeter;snapToPoint=1;align=left;labelPosition=right;verticalLabelPosition=top;verticalAlign=bottom;strokeWidth=3;" vertex="1" parent="1">
          <mxGeometry x="670" y="669" width="20" height="20" as="geometry" />
        </mxCell>
        <mxCell id="HKxgeeIhbZPUrJqvb2Vm-8" value="y wordt groter" style="endArrow=classic;html=1;rounded=0;" edge="1" parent="1">
          <mxGeometry width="50" height="50" relative="1" as="geometry">
            <mxPoint x="490" y="450" as="sourcePoint" />
            <mxPoint x="489" y="537" as="targetPoint" />
          </mxGeometry>
        </mxCell>
        <mxCell id="HKxgeeIhbZPUrJqvb2Vm-9" value="y wordt kleiner" style="endArrow=none;html=1;rounded=0;startArrow=classic;startFill=1;endFill=0;" edge="1" parent="1">
          <mxGeometry width="50" height="50" relative="1" as="geometry">
            <mxPoint x="590" y="450" as="sourcePoint" />
            <mxPoint x="589" y="537" as="targetPoint" />
          </mxGeometry>
        </mxCell>
        <mxCell id="HKxgeeIhbZPUrJqvb2Vm-10" value="" style="ellipse;whiteSpace=wrap;html=1;aspect=fixed;" vertex="1" parent="1">
          <mxGeometry x="270" y="660" width="60" height="60" as="geometry" />
        </mxCell>
        <mxCell id="HKxgeeIhbZPUrJqvb2Vm-11" value="" style="endArrow=open;startArrow=open;html=1;rounded=0;entryX=0.5;entryY=1;entryDx=0;entryDy=0;exitDx=0;exitDy=0;exitPerimeter=0;endFill=0;startFill=0;" edge="1" parent="1" source="HKxgeeIhbZPUrJqvb2Vm-12" target="HKxgeeIhbZPUrJqvb2Vm-10">
          <mxGeometry width="50" height="50" relative="1" as="geometry">
            <mxPoint x="275" y="790" as="sourcePoint" />
            <mxPoint x="325" y="740" as="targetPoint" />
          </mxGeometry>
        </mxCell>
        <mxCell id="HKxgeeIhbZPUrJqvb2Vm-13" value="" style="endArrow=classic;startArrow=classic;html=1;rounded=0;entryDx=0;entryDy=0;exitX=0.5;exitY=0.5;exitDx=0;exitDy=0;exitPerimeter=0;" edge="1" parent="1" source="HKxgeeIhbZPUrJqvb2Vm-10" target="HKxgeeIhbZPUrJqvb2Vm-12">
          <mxGeometry width="50" height="50" relative="1" as="geometry">
            <mxPoint x="300" y="690" as="sourcePoint" />
            <mxPoint x="300" y="720" as="targetPoint" />
          </mxGeometry>
        </mxCell>
        <mxCell id="HKxgeeIhbZPUrJqvb2Vm-12" value="" style="shape=waypoint;sketch=0;fillStyle=solid;size=6;pointerEvents=1;points=[];fillColor=none;resizable=0;rotatable=0;perimeter=centerPerimeter;snapToPoint=1;align=left;labelPosition=right;verticalLabelPosition=top;verticalAlign=bottom;strokeWidth=1;" vertex="1" parent="1">
          <mxGeometry x="290" y="680" width="20" height="20" as="geometry" />
        </mxCell>
        <mxCell id="HKxgeeIhbZPUrJqvb2Vm-14" value="" style="endArrow=none;dashed=1;html=1;dashPattern=1 3;strokeWidth=2;rounded=0;entryX=0.3;entryY=0.833;entryDx=0;entryDy=0;entryPerimeter=0;" edge="1" parent="1" source="HKxgeeIhbZPUrJqvb2Vm-12" target="IPZVipy1gVgAvXjCeuIr-1">
          <mxGeometry width="50" height="50" relative="1" as="geometry">
            <mxPoint x="340" y="680" as="sourcePoint" />
            <mxPoint x="390" y="630" as="targetPoint" />
          </mxGeometry>
        </mxCell>
        <mxCell id="HKxgeeIhbZPUrJqvb2Vm-15" value="middelpunt van de bal = (x, y) waarden" style="text;html=1;strokeColor=none;fillColor=none;align=center;verticalAlign=middle;whiteSpace=wrap;rounded=0;" vertex="1" parent="1">
          <mxGeometry x="120" y="600" width="230" height="30" as="geometry" />
        </mxCell>
        <mxCell id="HKxgeeIhbZPUrJqvb2Vm-16" value="" style="endArrow=none;dashed=1;html=1;dashPattern=1 3;strokeWidth=2;rounded=0;" edge="1" parent="1">
          <mxGeometry width="50" height="50" relative="1" as="geometry">
            <mxPoint x="301" y="706" as="sourcePoint" />
            <mxPoint x="223" y="666" as="targetPoint" />
          </mxGeometry>
        </mxCell>
        <mxCell id="HKxgeeIhbZPUrJqvb2Vm-17" value="straal van de bal" style="text;html=1;strokeColor=none;fillColor=none;align=center;verticalAlign=middle;whiteSpace=wrap;rounded=0;" vertex="1" parent="1">
          <mxGeometry x="140" y="640" width="100" height="30" as="geometry" />
        </mxCell>
      </root>
    </mxGraphModel>
  </diagram>
</mxfile>
